<svg version="1.1" id="Layer_1" xmlns="http://www.w3.org/2000/svg" xmlns:xlink="http://www.w3.org/1999/xlink" x="0px" y="0px"
	 width="100%" viewBox="0 0 500 500" enable-background="new 0 0 500 500" xml:space="preserve">
<path fill="#FF914D" opacity="1.000000" stroke="none" 
	d="
M241.000000,501.000000 
	C160.666687,501.000000 80.833374,501.000000 1.000043,501.000000 
	C1.000029,334.333405 1.000029,167.666779 1.000014,1.000132 
	C167.666565,1.000088 334.333130,1.000088 500.999756,1.000044 
	C500.999847,167.666519 500.999847,334.333038 500.999939,500.999786 
	C414.500000,501.000000 328.000000,501.000000 241.000000,501.000000 
M347.124207,384.166046 
	C351.072174,384.783661 352.613861,382.273773 354.139557,379.212189 
	C372.625885,342.116486 391.196594,305.062866 409.755890,268.003571 
	C410.501984,266.513733 411.352264,265.076050 412.153992,263.614075 
	C412.465973,263.748047 412.777924,263.882019 413.089905,264.015991 
	C413.089905,287.975342 413.089905,311.934662 413.089905,336.153320 
	C428.140930,336.153320 442.868439,336.153320 457.635101,336.153320 
	C457.767334,335.121185 457.924500,334.466339 457.924652,333.811432 
	C457.940216,276.645477 457.924591,219.479477 457.990509,162.313568 
	C457.994965,158.466415 456.527435,156.915222 452.670135,156.958649 
	C441.838318,157.080612 430.991241,157.313904 420.176483,156.866943 
	C414.739899,156.642288 412.226685,158.783920 410.043671,163.495911 
	C384.853546,217.867111 359.466797,272.147186 334.123627,326.447479 
	C333.408508,327.979675 332.597717,329.467285 331.466187,331.694977 
	C324.427917,317.359528 317.819214,303.930878 311.238098,290.488800 
	C290.376801,247.879257 269.474670,205.289536 248.751312,162.613007 
	C246.716782,158.423203 244.264542,156.743286 239.541428,156.890182 
	C228.552170,157.231979 217.543106,157.119354 206.546204,156.938797 
	C202.393753,156.870605 201.029297,158.463943 201.033493,162.539230 
	C201.110886,237.704941 201.114731,312.870789 201.025604,388.036469 
	C201.020447,392.390381 202.574753,393.967316 206.874557,393.897644 
	C217.704910,393.722137 228.540054,393.854980 239.373215,393.834808 
	C245.986984,393.822510 246.364822,393.433380 246.366104,386.649811 
	C246.373779,346.150299 246.369934,305.650757 246.369949,265.151245 
	C246.369965,263.577179 246.369934,262.003113 246.369934,260.429047 
	C248.143707,261.791473 249.054199,263.298431 249.862320,264.858459 
	C269.542542,302.848938 289.273010,340.813751 308.793030,378.886414 
	C310.847900,382.894318 313.261902,384.402832 317.706635,384.260223 
	C327.196747,383.955872 336.703430,384.167145 347.124207,384.166046 
M122.268913,201.050629 
	C133.216370,203.504761 141.873901,208.731232 144.611481,220.479355 
	C148.409225,236.777100 141.125366,248.863754 124.914055,253.109222 
	C121.262039,254.065628 117.352631,254.383591 113.559174,254.399796 
	C88.062744,254.508789 62.565620,254.451324 37.068733,254.468750 
	C35.147141,254.470062 33.225662,254.633743 31.397573,254.717636 
	C31.217112,255.810272 31.065830,256.299164 31.065636,256.788116 
	C31.048073,300.782623 31.067207,344.777161 30.993855,388.771576 
	C30.987036,392.861633 33.040409,393.890747 36.617619,393.866272 
	C47.615757,393.790955 58.614841,393.866852 69.613373,393.829681 
	C75.487503,393.809814 76.027084,393.215820 76.029076,387.091736 
	C76.038086,359.428436 76.033119,331.765137 76.033188,304.101837 
	C76.033195,302.177155 76.033188,300.252472 76.033188,298.001495 
	C82.925682,298.001495 89.092316,298.312103 95.210274,297.900085 
	C99.835869,297.588531 102.179138,299.131897 104.126091,303.446472 
	C116.927338,331.814606 130.111816,360.009674 142.981339,388.347443 
	C144.837097,392.433685 147.247787,394.033417 151.742645,393.930634 
	C163.401810,393.664001 175.071228,393.873688 186.736298,393.827393 
	C193.036362,393.802399 193.829498,392.520416 191.145401,386.725494 
	C180.302475,363.315948 169.399414,339.934235 158.576248,316.515564 
	C154.755432,308.248260 151.099564,299.904785 147.245239,291.321869 
	C149.182083,290.446411 150.666595,289.774445 152.151855,289.104156 
	C171.274719,280.474304 184.296326,266.400360 188.372070,245.617889 
	C190.171799,236.440918 190.477203,226.682861 189.680908,217.340332 
	C187.535019,192.163742 174.904617,173.955841 151.195862,164.132477 
	C138.873596,159.026932 125.905388,157.055710 112.639465,157.017807 
	C88.809219,156.949738 64.978645,156.998459 41.148212,156.998489 
	C31.030510,156.998505 31.031126,156.998596 31.031807,166.971024 
	C31.032541,177.746490 31.031971,188.521973 31.031971,199.841370 
	C33.603287,199.841370 35.564400,199.841354 37.525509,199.841354 
	C61.689236,199.841446 85.853157,199.793365 110.016479,199.891510 
	C113.817780,199.906937 117.616379,200.584915 122.268913,201.050629 
z"/>
<path fill="#3E3B3A" opacity="1.000000" stroke="none" 
	d="
M346.663757,384.166626 
	C336.703430,384.167145 327.196747,383.955872 317.706635,384.260223 
	C313.261902,384.402832 310.847900,382.894318 308.793030,378.886414 
	C289.273010,340.813751 269.542542,302.848938 249.862320,264.858459 
	C249.054199,263.298431 248.143707,261.791473 246.369934,260.429047 
	C246.369934,262.003113 246.369965,263.577179 246.369949,265.151245 
	C246.369934,305.650757 246.373779,346.150299 246.366104,386.649811 
	C246.364822,393.433380 245.986984,393.822510 239.373215,393.834808 
	C228.540054,393.854980 217.704910,393.722137 206.874557,393.897644 
	C202.574753,393.967316 201.020447,392.390381 201.025604,388.036469 
	C201.114731,312.870789 201.110886,237.704941 201.033493,162.539230 
	C201.029297,158.463943 202.393753,156.870605 206.546204,156.938797 
	C217.543106,157.119354 228.552170,157.231979 239.541428,156.890182 
	C244.264542,156.743286 246.716782,158.423203 248.751312,162.613007 
	C269.474670,205.289536 290.376801,247.879257 311.238098,290.488800 
	C317.819214,303.930878 324.427917,317.359528 331.466187,331.694977 
	C332.597717,329.467285 333.408508,327.979675 334.123627,326.447479 
	C359.466797,272.147186 384.853546,217.867111 410.043671,163.495911 
	C412.226685,158.783920 414.739899,156.642288 420.176483,156.866943 
	C430.991241,157.313904 441.838318,157.080612 452.670135,156.958649 
	C456.527435,156.915222 457.994965,158.466415 457.990509,162.313568 
	C457.924591,219.479477 457.940216,276.645477 457.924652,333.811432 
	C457.924500,334.466339 457.767334,335.121185 457.635101,336.153320 
	C442.868439,336.153320 428.140930,336.153320 413.089905,336.153320 
	C413.089905,311.934662 413.089905,287.975342 413.089905,264.015991 
	C412.777924,263.882019 412.465973,263.748047 412.153992,263.614075 
	C411.352264,265.076050 410.501984,266.513733 409.755890,268.003571 
	C391.196594,305.062866 372.625885,342.116486 354.139557,379.212189 
	C352.613861,382.273773 351.072174,384.783661 346.663757,384.166626 
z"/>
<path fill="#3E3B3A" opacity="1.000000" stroke="none" 
	d="
M121.842575,201.003586 
	C117.616379,200.584915 113.817780,199.906937 110.016479,199.891510 
	C85.853157,199.793365 61.689236,199.841446 37.525509,199.841354 
	C35.564400,199.841354 33.603287,199.841370 31.031971,199.841370 
	C31.031971,188.521973 31.032541,177.746490 31.031807,166.971024 
	C31.031126,156.998596 31.030510,156.998505 41.148212,156.998489 
	C64.978645,156.998459 88.809219,156.949738 112.639465,157.017807 
	C125.905388,157.055710 138.873596,159.026932 151.195862,164.132477 
	C174.904617,173.955841 187.535019,192.163742 189.680908,217.340332 
	C190.477203,226.682861 190.171799,236.440918 188.372070,245.617889 
	C184.296326,266.400360 171.274719,280.474304 152.151855,289.104156 
	C150.666595,289.774445 149.182083,290.446411 147.245239,291.321869 
	C151.099564,299.904785 154.755432,308.248260 158.576248,316.515564 
	C169.399414,339.934235 180.302475,363.315948 191.145401,386.725494 
	C193.829498,392.520416 193.036362,393.802399 186.736298,393.827393 
	C175.071228,393.873688 163.401810,393.664001 151.742645,393.930634 
	C147.247787,394.033417 144.837097,392.433685 142.981339,388.347443 
	C130.111816,360.009674 116.927338,331.814606 104.126091,303.446472 
	C102.179138,299.131897 99.835869,297.588531 95.210274,297.900085 
	C89.092316,298.312103 82.925682,298.001495 76.033188,298.001495 
	C76.033188,300.252472 76.033195,302.177155 76.033188,304.101837 
	C76.033119,331.765137 76.038086,359.428436 76.029076,387.091736 
	C76.027084,393.215820 75.487503,393.809814 69.613373,393.829681 
	C58.614841,393.866852 47.615757,393.790955 36.617619,393.866272 
	C33.040409,393.890747 30.987036,392.861633 30.993855,388.771576 
	C31.067207,344.777161 31.048073,300.782623 31.065636,256.788116 
	C31.065830,256.299164 31.217112,255.810272 31.397573,254.717636 
	C33.225662,254.633743 35.147141,254.470062 37.068733,254.468750 
	C62.565620,254.451324 88.062744,254.508789 113.559174,254.399796 
	C117.352631,254.383591 121.262039,254.065628 124.914055,253.109222 
	C141.125366,248.863754 148.409225,236.777100 144.611481,220.479355 
	C141.873901,208.731232 133.216370,203.504761 121.842575,201.003586 
z"/>
</svg>